<svg xmlns="http://www.w3.org/2000/svg" width="251.932" height="250.764" viewBox="0 0 251.932 250.764">
  <g id="TashiSVG" transform="translate(-433 -467)">
    <path id="Path_3" data-name="Path 3" d="M5.264,139.294A5.308,5.308,0,1,0,0,133.987a5.308,5.308,0,0,0,5.264,5.307Z" transform="translate(433 459.088)" fill="#f5f5f5"/>
    <path id="Path_5" data-name="Path 5" d="M128.8,18.528a5.308,5.308,0,1,0-5.264-5.308,5.308,5.308,0,0,0,5.264,5.308Z" transform="translate(433 459.088)" fill="#f5f5f5"/>
    <path id="Path_7" data-name="Path 7" d="M247.886,140.06a5.338,5.338,0,0,0,3.9-6.415,5.233,5.233,0,0,0-6.334-3.911,5.339,5.339,0,0,0-3.9,6.416,5.233,5.233,0,0,0,6.334,3.91Z" transform="translate(433 459.088)" fill="#f5f5f5"/>
    <g id="Group_1" data-name="Group 1">
      <path id="Path_1" data-name="Path 1" d="M129.8,149.909a15.923,15.923,0,1,0-15.79-15.922,15.923,15.923,0,0,0,15.79,15.922Z" transform="translate(433 459.088)" fill="#f5f5f5"/>
      <path id="Path_2" data-name="Path 2" d="M62.446,188.37l44.561-45.058-4.878-4.933L62.446,178.564l-9.222-9.324,12.791-12.994L38.35,128.272l8.865-8.963L74.88,147.342l18.681-18.889L66.908,101.442l11.9-12.032L61.2,71.6,17.527,115.759l4.879,4.933L61.2,81.409l7.913,8-11.9,12.032,26.654,27.011-8.984,9.083L47.215,109.5,28.653,128.272l27.665,27.974L43.527,169.24Z" transform="translate(433 459.088)" fill="#f5f5f5"/>
      <path id="Path_4" data-name="Path 4" d="M182.7,67.822l-44.684,44.934-4.892-4.919,39.852-40.015-9.247-9.3-12.887,12.9L123.1,43.525l-8.889,8.939,27.8,27.9L123.277,99.2,96.49,72.321l-11.932,12L66.9,66.562l43.79-44.034,4.892,4.919L76.624,66.562l7.935,7.979,11.932-12,26.787,26.877,9.008-9.059-27.8-27.9L123.1,33.746l27.741,27.9,12.887-12.9Z" transform="translate(433 459.088)" fill="#f5f5f5"/>
      <path id="Path_6" data-name="Path 6" d="M193.415,78.6l-44.561,45.059,4.878,4.932,39.683-40.185,9.222,9.324-12.851,13L217.51,138.7l-8.864,8.9-27.665-27.973L162.3,138.521l26.654,26.95-11.9,12.092,17.61,17.807,43.669-44.156-4.878-4.933-38.791,39.283-7.912-8,11.9-12.092L172,138.521l8.984-9.084,27.665,27.973,18.559-18.71-27.725-27.973,12.851-13Z" transform="translate(433 459.088)" fill="#f5f5f5"/>
      <path id="Path_8" data-name="Path 8" d="M73.163,199.151l44.684-44.934,4.892,4.919L82.887,199.151l9.247,9.3,12.886-12.958,27.741,27.956,8.83-8.939-27.742-27.9,18.733-18.838,26.727,26.877,11.992-12,17.659,17.758-43.79,44.035-4.892-4.92,38.957-39.115-7.934-7.979-11.992,12-26.727-26.877-9.008,9.059,27.741,27.9-18.554,18.718-27.74-27.958L92.135,218.229Z" transform="translate(433 459.088)" fill="#f5f5f5"/>
      <path id="Path_9" data-name="Path 9" d="M130.666,258.532a5.282,5.282,0,1,0-4-.644A5.306,5.306,0,0,0,130.666,258.532Z" transform="translate(433 459.088)" fill="#f5f5f5"/>
      <path id="Path_10" data-name="Path 10" d="M197.744,71.747a5.376,5.376,0,0,0,3.907-6.434,5.2,5.2,0,0,0-6.317-3.9,5.374,5.374,0,0,0-3.906,6.433,5.2,5.2,0,0,0,6.316,3.9Z" transform="translate(433 459.088)" fill="#f5f5f5"/>
      <path id="Path_11" data-name="Path 11" d="M61.893,206.744A5.375,5.375,0,0,0,65.8,200.31a5.2,5.2,0,0,0-6.317-3.9,5.375,5.375,0,0,0-3.906,6.434,5.2,5.2,0,0,0,6.316,3.9Z" transform="translate(433 459.088)" fill="#f5f5f5"/>
      <path id="Path_12" data-name="Path 12" d="M57.635,67.3a5.308,5.308,0,1,0-5.264-5.308A5.308,5.308,0,0,0,57.635,67.3Z" transform="translate(433 459.088)" fill="#f5f5f5"/>
      <path id="Path_13" data-name="Path 13" d="M200.486,211.6a5.308,5.308,0,1,0-5.263-5.307A5.308,5.308,0,0,0,200.486,211.6Z" transform="translate(433 459.088)" fill="#f5f5f5"/>
    </g>
  </g>
</svg>
